<svg xmlns="http://www.w3.org/2000/svg" viewBox="0 0 100 100" width="256" height="256" role="img" aria-label="Catalog Enricher agent"><circle cx="50" cy="50" r="50" fill="#fde2d4"/><circle cx="50" cy="50" r="48" fill="none" stroke="#d08760" stroke-width="2.5" opacity="0.4"/><rect x="36" y="32" width="36" height="44" rx="6" fill="#975532"/><rect x="28" y="38" width="36" height="40" rx="6" fill="#d08760"/><rect x="34" y="46" width="24" height="3.2" rx="1.6" fill="#f1ede4" opacity="0.7"/><ellipse cx="39" cy="60" rx="4" ry="4.8" fill="#fcfbf8"/><circle cx="39" cy="60.6" r="2.3" fill="#34302a"/><ellipse cx="53" cy="60" rx="4" ry="4.8" fill="#fcfbf8"/><circle cx="53" cy="60.6" r="2.3" fill="#34302a"/><path d="M42.8,68 Q46,70.88 49.2,68" fill="none" stroke="#fcfbf8" stroke-width="2.4" stroke-linecap="round"/><path d="M73,22 l2.6,6.4 l6.4,2.6 l-6.4,2.6 l-2.6,6.4 l-2.6,-6.4 l-6.4,-2.6 l6.4,-2.6 Z" fill="#d08760"/><path d="M28,24 l1.7,4.2 l4.2,1.7 l-4.2,1.7 l-1.7,4.2 l-1.7,-4.2 l-4.2,-1.7 l4.2,-1.7 Z" fill="#975532"/></svg>