<svg xmlns="http://www.w3.org/2000/svg" viewBox="0 0 100 100" width="256" height="256" role="img" aria-label="Platform Assistant agent"><circle cx="50" cy="50" r="50" fill="#dee8ff"/><circle cx="50" cy="50" r="48" fill="none" stroke="#7d9add" stroke-width="2.5" opacity="0.4"/><path d="M23,30 H77 a8,8 0 0 1 8,8 V60 a8,8 0 0 1 -8,8 H46 L33,80 L34.5,68 H23 a8,8 0 0 1 -8,-8 V38 a8,8 0 0 1 8,-8 Z" fill="#7d9add"/><ellipse cx="40" cy="47" rx="5.2" ry="6.2" fill="#fcfbf8"/><circle cx="40" cy="47.6" r="2.7" fill="#34302a"/><ellipse cx="60" cy="47" rx="5.2" ry="6.2" fill="#fcfbf8"/><circle cx="60" cy="47.6" r="2.7" fill="#34302a"/><path d="M46,55 Q50,58.6 54,55" fill="none" stroke="#fcfbf8" stroke-width="2.4" stroke-linecap="round"/><circle cx="50" cy="22" r="2.6" fill="#4e66a3"/><line x1="50" y1="25" x2="50" y2="30" stroke="#4e66a3" stroke-width="2.4" stroke-linecap="round"/></svg>